<?xml version="1.0" encoding="iso-8859-1"?>
<!-- Generator: Adobe Illustrator 16.0.4, SVG Export Plug-In . SVG Version: 6.00 Build 0)  -->
<!DOCTYPE svg PUBLIC "-//W3C//DTD SVG 1.1//EN" "http://www.w3.org/Graphics/SVG/1.1/DTD/svg11.dtd">
<svg version="1.1" id="Capa_1" xmlns="http://www.w3.org/2000/svg" xmlns:xlink="http://www.w3.org/1999/xlink" x="0px" y="0px"
	 width="64px" height="64px" viewBox="0 0 64 64" style="enable-background:new 0 0 64 64;" xml:space="preserve">
<g>
	<g id="circle_1_">
		<g>
			<path d="M31,29v-4c0-0.603,0-1.656,0-1.656s-0.907-0.046-1.41,0.287l-9.39,6.183c-0.457,0.303-0.731,0.688-0.731,1.233
				c0,0.545,0.274,1.055,0.731,1.357l9.39,5.776c0.503,0.335,1.41,0.351,1.41,0.351s0-0.929,0-1.531v-4
				c11.467,0,13.021,7.674,13.021,7.674C44.021,31.604,37.003,29,31,29z M32,0C14.327,0,0,14.327,0,32s14.327,32,32,32
				s32-14.327,32-32S49.673,0,32,0z M43.996,42.987C42.069,38.368,38.17,34.98,33,34.976v3.989c0,0.736-0.406,1.41-1.057,1.759
				c-0.65,0.347-1.439,0.31-2.053-0.1l-12-7.978C17.334,32.276,17,31.653,17,30.987c0-0.667,0.334-1.289,0.891-1.659l12-7.978
				c0.613-0.407,1.402-0.446,2.053-0.1C32.594,21.599,33,22.273,33,23.01v3.989c6.628,0,12,5.357,12,11.966
				C45,40.365,44.809,41.704,43.996,42.987z"/>
		</g>
	</g>
</g>
<g>
</g>
<g>
</g>
<g>
</g>
<g>
</g>
<g>
</g>
<g>
</g>
<g>
</g>
<g>
</g>
<g>
</g>
<g>
</g>
<g>
</g>
<g>
</g>
<g>
</g>
<g>
</g>
<g>
</g>
</svg>
