<?xml version="1.0" encoding="iso-8859-1"?>
<!-- Generator: Adobe Illustrator 16.0.4, SVG Export Plug-In . SVG Version: 6.00 Build 0)  -->
<!DOCTYPE svg PUBLIC "-//W3C//DTD SVG 1.1//EN" "http://www.w3.org/Graphics/SVG/1.1/DTD/svg11.dtd">
<svg version="1.1" id="Capa_1" xmlns="http://www.w3.org/2000/svg" xmlns:xlink="http://www.w3.org/1999/xlink" x="0px" y="0px"
	 width="64px" height="64px" viewBox="0 0 64 64" style="enable-background:new 0 0 64 64;" xml:space="preserve">
<g>
	<g id="circle_23_">
		<g>
			<path d="M32,0C14.327,0,0,14.327,0,32s14.327,32,32,32s32-14.327,32-32S49.673,0,32,0z M44,33h-1.048
				c-0.476,5.275-4.676,9.474-9.952,9.949V44c0,0.553-0.447,1-1,1s-1-0.447-1-1v-1.051c-5.276-0.476-9.477-4.674-9.952-9.949H20
				c-0.553,0-1-0.447-1-1s0.447-1,1-1h1.048c0.477-5.279,4.682-9.479,9.962-9.95c0-0.018-0.01-0.032-0.01-0.05v-1
				c0-0.553,0.447-1,1-1s1,0.447,1,1v1c0,0.018-0.009,0.032-0.01,0.05c5.28,0.472,9.485,4.671,9.962,9.95H44c0.553,0,1,0.447,1,1
				S44.553,33,44,33z M32,23c-4.971,0-9,4.029-9,9s4.029,9,9,9s9-4.029,9-9S36.971,23,32,23z M32,38c-3.313,0-6-2.687-6-6
				s2.687-6,6-6s6,2.687,6,6S35.313,38,32,38z M32,28c-2.209,0-4,1.791-4,4s1.791,4,4,4s4-1.791,4-4S34.209,28,32,28z"/>
		</g>
	</g>
</g>
<g>
</g>
<g>
</g>
<g>
</g>
<g>
</g>
<g>
</g>
<g>
</g>
<g>
</g>
<g>
</g>
<g>
</g>
<g>
</g>
<g>
</g>
<g>
</g>
<g>
</g>
<g>
</g>
<g>
</g>
</svg>
