<?xml version="1.0" encoding="UTF-8"?>
<svg width="73px" height="86px" viewBox="0 0 73 86" version="1.1" xmlns="http://www.w3.org/2000/svg" xmlns:xlink="http://www.w3.org/1999/xlink">
    <!-- Generator: Sketch 47.1 (45422) - http://www.bohemiancoding.com/sketch -->
    <title>Group 2</title>
    <desc>Created with Sketch.</desc>
    <defs></defs>
    <g id="Symbols" stroke="none" stroke-width="1" fill="none" fill-rule="evenodd">
        <g id="环视-copy" transform="translate(-20.000000, 3.000000)">
            <g id="Group-2" transform="translate(56.500000, 40.000000) rotate(-90.000000) translate(-56.500000, -40.000000) translate(14.000000, 4.000000)">
                <path d="M76.0127928,14.9370353 C75.9511471,14.7663147 75.864738,14.5277608 75.7559324,14.2285393 C75.4995734,13.5235377 75.2118554,12.7378385 74.8994559,11.8916534 C74.0070217,9.47434943 73.0958451,7.05721331 72.21953,4.80235806 C72.03881,4.33734547 71.8611398,3.88333009 71.6868179,3.4412113 C71.4201347,2.76484438 71.162089,2.11834971 70.9136104,1.50452314 L70.8405441,1.32402454 L70.8405441,1.12929799 C70.8405441,0.92754758 69.3088189,0.769827541 67.1210135,1.54095918 L4.31833521,26.6710858 C3.98694354,26.7982669 3.66116261,26.926396 3.34459929,27.0539071 C6.64830279,28.7080506 8.86899859,32.1242083 8.86899859,36 C8.86899859,40.057197 6.43990861,43.5912435 2.90972004,45.1508934 C3.35974364,45.3381654 3.83410228,45.5288264 4.32129735,45.7177362 L67.084322,70.0341619 C69.3103553,70.825125 70.8405441,70.6712417 70.8405441,70.4719673 L70.8405441,70.3242478 L70.8832542,70.1828375 C71.5308798,68.0385912 74.3975396,59.0871414 74.9174583,57.1151292 L76.0127928,14.9370353 Z" id="-" stroke="#319AC6" stroke-width="2"></path>
                <path d="M77.4257107,17.7530598 C76.1280707,12.6631135 74.2663485,7.1218596 71.8405441,1.12929799 C71.8405441,-0.137523211 69.5612087,-0.379673582 66.749506,0.612529214 L3.96003664,25.7374788 C2.66094462,26.2360427 1.47549815,26.7377652 0.576001681,27.1616673 C4.73027848,27.9592485 7.86899859,31.6130806 7.86899859,36 C7.86899859,40.5875016 4.43669469,44.3733457 0,44.9296191 C0.93332521,45.4056443 2.36054006,46.0299967 3.96003664,46.6502011 L66.749506,70.9764454 C69.5612087,71.9755109 71.8405441,71.7387885 71.8405441,70.4719673 C73.8138037,63.9386335 75.1716776,60.1996094 75.9141658,57.2548948" id="--copy" fill="#08BB08" opacity="0.0647305269"></path>
                <path d="M78.6050701,46.5203302 C79.0790478,43.155773 79.3204751,39.6958579 79.3204751,36.1855995 C79.3204751,32.545853 79.0609053,28.9604331 78.5517776,25.4796698 L76.5728349,25.7691278 C77.0679089,29.15381 77.3204751,32.642489 77.3204751,36.1855995 C77.3204751,39.6027248 77.0855529,42.9694143 76.6246249,46.2413375 L78.6050701,46.5203302 Z" id="Oval-5" fill="#319AC6" fill-rule="nonzero" transform="translate(77.946655, 36.000000) rotate(1.000000) translate(-77.946655, -36.000000) "></path>
                <circle id="Oval-4" stroke="#319AC6" fill="#319AC6" cx="79" cy="36" r="6"></circle>
                <polygon id="Combined-Shape" fill="#319AC6" transform="translate(77.283758, 48.923428) rotate(-123.000000) translate(-77.283758, -48.923428) " points="80.9258937 45.2812921 73.6416225 45.2812921 73.6416225 52.5655634"></polygon>
                <polygon id="Combined-Shape-Copy" fill="#319AC6" transform="translate(78.136547, 23.100542) rotate(-323.000000) translate(-78.136547, -23.100542) " points="81.7786828 19.4584069 74.4944115 19.4584069 74.4944115 26.7426781"></polygon>
            </g>
        </g>
    </g>
</svg>