<?xml version="1.0" encoding="utf-8"?>
<!-- Generator: Adobe Illustrator 21.0.0, SVG Export Plug-In . SVG Version: 6.00 Build 0)  -->
<svg version="1.1" id="图层_1" xmlns="http://www.w3.org/2000/svg" xmlns:xlink="http://www.w3.org/1999/xlink" x="0px" y="0px"
	 viewBox="0 0 48 48" style="enable-background:new 0 0 48 48;" xml:space="preserve">
<g transform="translate(0.000000,54.000000) scale(0.100000,-0.100000)">
	<path d="M0,300V60h240h240v240v240H240H0V300z M316.4,446.7c29.3-19.6,50.7-72,39.1-92.4c-10.7-20.4-67.6-34.7-88-21.3
		c-19.6,12.4-23.1,78.2-5.3,105.8C278.2,463.6,290.7,465.3,316.4,446.7z M199.1,389.8c23.1-25.8,28.4-82.7,9.8-101.3
		c-19.6-19.6-59.6-19.6-84.4,0.9c-16,13.3-18.7,21.3-14.2,43.6c7.1,31.1,42.7,73.8,61.3,73.8C178.7,406.7,191.1,398.7,199.1,389.8z
		 M355.6,255.6c0-27.6-32-56-52.4-45.3c-16.9,9.8-27.6,28.4-27.6,50.7c0,8.9,11.6,12.4,40,12.4C349.3,273.3,355.6,270.7,355.6,255.6
		z M204.4,204c0-21.3-24.9-55.1-40-55.1s-40,33.8-40,55.1c0,13.3,8,16,40,16S204.4,217.3,204.4,204z"/>
</g>
</svg>
